<svg viewBox="0 0 40 40" fill="none" xmlns="http://www.w3.org/2000/svg">
  <defs>
    <linearGradient id="paradox-brand-blue" x1="0%" y1="0%" x2="100%" y2="100%">
      <stop offset="0%" stop-color="#2563EB" />
      <stop offset="100%" stop-color="#1D4ED8" />
    </linearGradient>
    <linearGradient id="paradox-shadow" x1="0%" y1="0%" x2="100%" y2="100%">
      <stop offset="0%" stop-color="#1E40AF" />
      <stop offset="100%" stop-color="#172554" />
    </linearGradient>
  </defs>

  <!-- Base Squircle -->
  <rect width="40" height="40" rx="10" fill="url(#paradox-brand-blue)" />

  <!-- Rim Highlight -->
  <rect
    x="0.75"
    y="0.75"
    width="38.5"
    height="38.5"
    rx="9.25"
    stroke="rgba(255, 255, 255, 0.25)"
    stroke-width="1"
    fill="none"
  />

  <!-- Pure Modernist Geometric Ribbon 'P' -->
  <path
    fill-rule="evenodd"
    clip-rule="evenodd"
    d="M11 9C11 8.44772 11.4477 8 12 8H24C28.4183 8 32 11.5817 32 16C32 20.4183 28.4183 24 24 24H21V19H23.5C25.1569 19 26.5 17.6569 26.5 16C26.5 14.3431 25.1569 13 23.5 13H16.5V31C16.5 31.5523 16.0523 32 15.5 32H12C11.4477 32 11 31.5523 11 31V9ZM21 24V28L16.5 32V24H21Z"
    fill="#FFFFFF"
  />

  <!-- Optical Underfold Shadow -->
  <path d="M16.5 19H21V24H16.5V19Z" fill="url(#paradox-shadow)" />
</svg>
